<svg width="1391" height="81" viewBox="0 0 1391 81" fill="none" xmlns="http://www.w3.org/2000/svg">
<g clip-path="url(#clip0_45_2592)">
<path d="M770.155 60.5352C764.108 66.5823 753.867 66.5582 751.007 58.4989C750.447 56.921 749.999 55.2986 749.67 53.6431C748.325 46.8837 749.015 39.8776 751.652 33.5104C754.29 27.1434 758.756 21.7013 764.486 17.8725C770.217 14.0436 776.954 12 783.845 12C790.737 12 797.474 14.0436 803.204 17.8725C808.934 21.7013 813.4 27.1434 816.038 33.5106C818.675 39.8776 819.365 46.8837 818.021 53.6431C817.691 55.2986 817.244 56.921 816.684 58.4989C813.823 66.5582 803.582 66.5823 797.535 60.5352L788.201 51.2008C787.309 50.309 787.401 48.8382 787.647 47.6013C787.797 46.8494 787.72 46.07 787.426 45.3617C787.133 44.6533 786.636 44.0479 785.999 43.622C785.361 43.1961 784.612 42.9687 783.845 42.9687C783.079 42.9687 782.329 43.1961 781.692 43.622C781.054 44.0479 780.557 44.6533 780.264 45.3617C779.97 46.07 779.894 46.8494 780.043 47.6013C780.289 48.8382 780.381 50.309 779.489 51.2008L770.155 60.5352Z" fill="url(#paint0_linear_45_2592)"/>
<path d="M847.039 52.1694H856.406V57.689H839.889V28.3354H847.039V52.1694Z" fill="#3A3B7B"/>
<path d="M869.183 58.0233C866.897 58.0233 864.834 57.5355 862.994 56.5598C861.182 55.5842 859.747 54.1904 858.687 52.3784C857.656 50.5664 857.14 48.4479 857.14 46.0225C857.14 43.6253 857.67 41.5205 858.729 39.7086C859.788 37.8689 861.238 36.4611 863.078 35.4854C864.918 34.5098 866.98 34.022 869.266 34.022C871.552 34.022 873.615 34.5098 875.455 35.4854C877.295 36.4611 878.744 37.8689 879.803 39.7086C880.863 41.5205 881.392 43.6253 881.392 46.0225C881.392 48.4199 880.849 50.5385 879.762 52.3784C878.702 54.1904 877.239 55.5842 875.371 56.5598C873.531 57.5355 871.468 58.0233 869.183 58.0233ZM869.183 51.8347C870.548 51.8347 871.705 51.3331 872.653 50.3295C873.629 49.3259 874.117 47.8904 874.117 46.0225C874.117 44.1549 873.643 42.7193 872.695 41.7158C871.775 40.7122 870.632 40.2104 869.266 40.2104C867.872 40.2104 866.716 40.7122 865.796 41.7158C864.876 42.6914 864.416 44.1269 864.416 46.0225C864.416 47.8904 864.862 49.3259 865.754 50.3295C866.674 51.3331 867.817 51.8347 869.183 51.8347Z" fill="#3A3B7B"/>
<path d="M892.795 34.022C894.44 34.022 895.876 34.3565 897.102 35.0256C898.357 35.6944 899.319 36.5727 899.988 37.6597V34.3565H907.138V57.6468C907.138 59.7933 906.706 61.7309 905.842 63.459C905.005 65.2153 903.709 66.6091 901.953 67.6404C900.225 68.6719 898.064 69.1877 895.472 69.1877C892.015 69.1877 889.213 68.3654 887.067 66.7207C884.921 65.1037 883.694 62.9015 883.387 60.1139H890.454C890.677 61.0059 891.207 61.7029 892.043 62.2047C892.879 62.7342 893.911 62.9991 895.137 62.9991C896.615 62.9991 897.785 62.567 898.65 61.7029C899.542 60.8666 899.988 59.5147 899.988 57.6468V54.3437C899.291 55.4307 898.329 56.3229 897.102 57.0197C895.876 57.6888 894.44 58.0233 892.795 58.0233C890.872 58.0233 889.13 57.5355 887.569 56.5598C886.008 55.5562 884.767 54.1484 883.847 52.3365C882.955 50.4968 882.509 48.3782 882.509 45.9808C882.509 43.5834 882.955 41.4788 883.847 39.6669C884.767 37.8549 886.008 36.4611 887.569 35.4854C889.13 34.5098 890.872 34.022 892.795 34.022ZM899.988 46.0225C899.988 44.2385 899.486 42.8307 898.482 41.7994C897.507 40.7681 896.308 40.2523 894.886 40.2523C893.465 40.2523 892.252 40.7681 891.248 41.7994C890.273 42.803 889.785 44.1968 889.785 45.9808C889.785 47.7648 890.273 49.1866 891.248 50.2459C892.252 51.2772 893.465 51.793 894.886 51.793C896.308 51.793 897.507 51.2772 898.482 50.2459C899.486 49.2143 899.988 47.8068 899.988 46.0225Z" fill="#3A3B7B"/>
<path d="M921.677 58.0233C919.391 58.0233 917.329 57.5355 915.489 56.5598C913.677 55.5842 912.241 54.1904 911.182 52.3784C910.151 50.5664 909.635 48.4479 909.635 46.0225C909.635 43.6253 910.164 41.5205 911.224 39.7086C912.283 37.8689 913.733 36.4611 915.572 35.4854C917.412 34.5098 919.475 34.022 921.761 34.022C924.047 34.022 926.11 34.5098 927.949 35.4854C929.789 36.4611 931.239 37.8689 932.298 39.7086C933.357 41.5205 933.887 43.6253 933.887 46.0225C933.887 48.4199 933.343 50.5385 932.256 52.3784C931.197 54.1904 929.733 55.5842 927.866 56.5598C926.026 57.5355 923.963 58.0233 921.677 58.0233ZM921.677 51.8347C923.043 51.8347 924.2 51.3331 925.148 50.3295C926.124 49.3259 926.611 47.8904 926.611 46.0225C926.611 44.1549 926.137 42.7193 925.19 41.7158C924.27 40.7122 923.127 40.2104 921.761 40.2104C920.367 40.2104 919.21 40.7122 918.29 41.7158C917.37 42.6914 916.91 44.1269 916.91 46.0225C916.91 47.8904 917.356 49.3259 918.249 50.3295C919.168 51.3331 920.311 51.8347 921.677 51.8347Z" fill="#3A3B7B"/>
<path d="M940.022 31.9312C938.767 31.9312 937.736 31.5688 936.928 30.844C936.147 30.0914 935.757 29.1714 935.757 28.0843C935.757 26.9692 936.147 26.0493 936.928 25.3245C937.736 24.5719 938.767 24.1956 940.022 24.1956C941.248 24.1956 942.252 24.5719 943.032 25.3245C943.841 26.0493 944.245 26.9692 944.245 28.0843C944.245 29.1714 943.841 30.0914 943.032 30.844C942.252 31.5688 941.248 31.9312 940.022 31.9312ZM943.576 34.3564V57.6887H936.426V34.3564H943.576Z" fill="#3A3B7B"/>
<path d="M954.653 37.6597C955.35 36.5727 956.312 35.6944 957.539 35.0256C958.766 34.3565 960.202 34.022 961.846 34.022C963.77 34.022 965.511 34.5098 967.072 35.4854C968.634 36.4611 969.861 37.8549 970.752 39.6669C971.671 41.4788 972.133 43.5834 972.133 45.9808C972.133 48.3782 971.671 50.4968 970.752 52.3365C969.861 54.1484 968.634 55.5562 967.072 56.5598C965.511 57.5355 963.77 58.0233 961.846 58.0233C960.228 58.0233 958.794 57.6888 957.539 57.0197C956.312 56.3506 955.35 55.4866 954.653 54.4273V68.8113H947.503V34.3565H954.653V37.6597ZM964.857 45.9808C964.857 44.1968 964.355 42.803 963.35 41.7994C962.374 40.7681 961.163 40.2523 959.714 40.2523C958.292 40.2523 957.079 40.7681 956.075 41.7994C955.101 42.8307 954.613 44.2385 954.613 46.0225C954.613 47.8068 955.101 49.2143 956.075 50.2459C957.079 51.2772 958.292 51.793 959.714 51.793C961.135 51.793 962.348 51.2772 963.35 50.2459C964.355 49.1866 964.857 47.7648 964.857 45.9808Z" fill="#3A3B7B"/>
<path d="M984.121 58.0233C982.086 58.0233 980.273 57.6748 978.684 56.978C977.096 56.281 975.84 55.3333 974.921 54.1345C974.002 52.9079 973.485 51.5421 973.374 50.0367H980.441C980.524 50.8451 980.901 51.5002 981.569 52.0019C982.239 52.5037 983.062 52.7546 984.038 52.7546C984.929 52.7546 985.611 52.5874 986.085 52.2528C986.587 51.8906 986.838 51.4305 986.838 50.873C986.838 50.204 986.49 49.7161 985.793 49.4095C985.097 49.075 983.967 48.7127 982.406 48.3223C980.733 47.9321 979.34 47.5279 978.224 47.1097C977.11 46.6638 976.148 45.9808 975.34 45.0609C974.53 44.1132 974.127 42.8447 974.127 41.2559C974.127 39.9178 974.49 38.7052 975.215 37.618C975.966 36.503 977.053 35.6248 978.475 34.9836C979.925 34.3425 981.64 34.022 983.618 34.022C986.545 34.022 988.845 34.7467 990.518 36.1962C992.219 37.6459 993.195 39.5693 993.446 41.9667H986.838C986.727 41.1583 986.364 40.5172 985.751 40.0431C985.166 39.5693 984.386 39.3323 983.41 39.3323C982.574 39.3323 981.932 39.4996 981.486 39.8341C981.041 40.1407 980.818 40.5728 980.818 41.1303C980.818 41.7994 981.166 42.3012 981.863 42.6357C982.588 42.9702 983.702 43.3048 985.208 43.6391C986.935 44.0852 988.343 44.5313 989.43 44.9772C990.518 45.3954 991.465 46.0922 992.273 47.068C993.11 48.0157 993.543 49.298 993.571 50.9149C993.571 52.2808 993.181 53.5073 992.399 54.5946C991.648 55.6538 990.546 56.4902 989.096 57.1033C987.675 57.7167 986.016 58.0233 984.121 58.0233Z" fill="#3A3B7B"/>
<path d="M1019.73 34.3567V57.6889H1012.58V54.5111C1011.86 55.5424 1010.87 56.3788 1009.61 57.0199C1008.38 57.6333 1007.02 57.9398 1005.51 57.9398C1003.73 57.9398 1002.15 57.5496 1000.79 56.769C999.422 55.9606 998.363 54.8037 997.611 53.2985C996.858 51.7932 996.481 50.0231 996.481 47.988V34.3567H1003.59V47.0263C1003.59 48.5874 1003.99 49.7999 1004.8 50.6642C1005.61 51.5283 1006.7 51.9604 1008.06 51.9604C1009.46 51.9604 1010.56 51.5283 1011.37 50.6642C1012.18 49.7999 1012.58 48.5874 1012.58 47.0263V34.3567H1019.73Z" fill="#3A3B7B"/>
<path d="M1053.38 34.106C1056.28 34.106 1058.58 34.984 1060.28 36.7403C1062.01 38.4964 1062.88 40.9355 1062.88 44.0576V57.6891H1055.77V45.0195C1055.77 43.5141 1055.36 42.3572 1054.55 41.5488C1053.77 40.7125 1052.69 40.2944 1051.29 40.2944C1049.9 40.2944 1048.8 40.7125 1047.99 41.5488C1047.21 42.3572 1046.82 43.5141 1046.82 45.0195V57.6891H1039.71V45.0195C1039.71 43.5141 1039.31 42.3572 1038.5 41.5488C1037.72 40.7125 1036.63 40.2944 1035.24 40.2944C1033.84 40.2944 1032.74 40.7125 1031.93 41.5488C1031.15 42.3572 1030.76 43.5141 1030.76 45.0195V57.6891H1023.61V34.3569H1030.76V37.2838C1031.49 36.3081 1032.44 35.5415 1033.61 34.984C1034.78 34.3986 1036.1 34.106 1037.58 34.106C1039.33 34.106 1040.9 34.4822 1042.26 35.2349C1043.65 35.9876 1044.74 37.0608 1045.52 38.4546C1046.33 37.1722 1047.43 36.1269 1048.83 35.3185C1050.22 34.5101 1051.74 34.106 1053.38 34.106Z" fill="#3A3B7B"/>
<path d="M590.629 9.95664C590.629 10.0511 590.629 10.1691 590.605 10.24C590.484 11.1608 590.484 12.0817 590.556 13.0261C590.605 13.2622 590.653 13.4983 590.846 13.6872C591.16 14.0414 591.643 13.9706 591.836 13.5456C591.933 13.3331 591.933 13.1206 591.884 12.9081C591.643 12.0108 591.595 11.0664 591.571 10.1455C591.571 10.0983 591.571 10.0275 591.571 9.95664C591.836 9.93302 592.078 9.9094 592.295 9.9094C592.464 9.8858 592.609 9.86218 592.73 9.79135C593.092 9.60247 593.092 9.20108 592.705 9.01218C592.561 8.94134 592.367 8.91772 592.198 8.91772C591.595 8.94134 590.991 8.94134 590.387 8.94134C590.17 8.94134 589.953 8.96496 589.735 8.98856C589.614 9.01218 589.47 9.01218 589.373 9.08302C589.204 9.15384 589.107 9.2719 589.107 9.43717C589.132 9.60247 589.204 9.69691 589.373 9.76775C589.47 9.83858 589.59 9.86218 589.711 9.86218C590.001 9.8858 590.315 9.93302 590.629 9.95664ZM597.27 11.0428C597.27 11.0664 597.294 11.09 597.294 11.09C597.39 11.7275 597.487 12.3414 597.559 12.9553C597.584 13.1678 597.608 13.3567 597.753 13.5219C598.067 13.9233 598.55 13.8761 598.767 13.4511C598.864 13.2386 598.888 13.0261 598.839 12.79C598.695 12.0817 598.622 11.3733 598.477 10.6886C598.38 10.2636 598.26 9.86218 598.139 9.48441C598.067 9.2483 597.898 9.083 597.608 9.0594C597.318 9.01218 597.101 9.15384 596.98 9.36635C596.835 9.55523 596.714 9.74413 596.618 9.95664C596.449 10.3344 596.304 10.7122 596.111 11.0664C596.086 11.1608 596.062 11.2317 596.014 11.3025C595.99 11.2553 595.966 11.2317 595.966 11.2317C595.652 10.6414 595.362 10.0511 595.048 9.48441C595 9.43717 594.976 9.38995 594.951 9.34273C594.807 9.13024 594.638 9.01218 594.372 9.01218C594.13 9.03578 593.937 9.17746 593.816 9.38995C593.768 9.48441 593.768 9.55523 593.744 9.64969C593.647 10.4053 593.527 11.1608 593.43 11.9164C593.382 12.3414 593.358 12.7664 593.358 13.1914C593.333 13.2858 593.358 13.4039 593.406 13.4983C593.454 13.6872 593.599 13.8053 593.792 13.8289C594.034 13.8525 594.203 13.7817 594.275 13.5928C594.348 13.4511 594.372 13.3331 594.396 13.215C594.493 12.79 594.565 12.3886 594.638 11.9872C594.686 11.7511 594.71 11.5622 594.782 11.3025C594.831 11.3969 594.879 11.4678 594.927 11.5386C595.144 11.8219 595.362 12.1053 595.628 12.3414C595.893 12.5303 596.111 12.5067 596.328 12.2942C596.376 12.2469 596.4 12.2233 596.449 12.1761C596.666 11.8455 596.932 11.515 597.149 11.1844C597.197 11.1372 597.221 11.09 597.27 11.0428Z" fill="#3A3B7B"/>
<path d="M541.627 10.4205C541.459 10.8693 541.427 11.1925 541.505 11.4612C541.59 11.8266 541.813 11.9462 542.114 11.8533C544.951 11.1675 551.171 13.1141 553.473 13.6566C554.016 13.7705 554.458 13.0851 554.088 12.4705C553.547 11.8753 547.33 9.32722 544.958 9.18829C544.028 9.13691 542.365 8.90377 541.627 10.4205Z" fill="#3A3B7B"/>
<path d="M565.936 2.17175C566.238 2.34234 566.407 2.50508 566.491 2.68691C566.615 2.92541 566.549 3.09043 566.341 3.17464C564.466 4.06935 561.971 7.92129 560.964 9.24978C560.719 9.55539 560.156 9.3778 560.071 8.87523C560.089 8.30698 562.3 4.12677 563.535 2.98823C564.02 2.5437 564.821 1.67149 565.936 2.17175Z" fill="#3A3B7B"/>
<path d="M551.004 0.275761C551.367 0.00813476 551.745 -0.0856494 551.938 0.0882738C554.766 2.45375 556.267 6.19968 557.196 9.629C557.231 9.7089 557.233 9.82355 557.205 9.94315C557.193 10.0454 557.117 10.1534 556.995 10.2369C556.866 10.3292 556.754 10.3573 556.702 10.2778C555.462 8.62893 548.381 2.21355 551.004 0.275761Z" fill="#3A3B7B"/>
<path d="M491.099 41.2872C491.777 40.7937 492.514 40.3828 493.294 40.0639C494.11 39.8358 494.98 39.8736 495.772 40.1718C496.564 40.47 497.235 41.0122 497.684 41.7165C498.085 42.419 498.242 43.2301 498.132 44.0276C498.021 44.8249 497.648 45.5655 497.069 46.1378C496.621 46.6017 496.111 47.0058 495.555 47.3398C493.074 48.9066 490.572 50.3874 488.069 51.9542C487.557 52.3463 487.014 52.6981 486.445 53.0059C485.579 53.428 484.59 53.541 483.648 53.3255C482.706 53.1101 481.871 52.5793 481.286 51.8255C480.85 51.2916 480.481 50.7079 480.189 50.0869C477.818 45.215 475.36 40.3644 473.077 35.4064C472.023 33.2603 471.167 30.792 470.333 28.4097C469.972 27.7175 469.901 26.915 470.136 26.1728C470.371 25.4305 470.893 24.8072 471.591 24.4353C472.289 24.0635 473.107 23.9725 473.872 24.1817C474.638 24.3908 475.289 24.8836 475.689 25.5552C476.917 27.1505 478.004 28.8451 478.938 30.6204C481.308 34.9129 483.569 39.2053 485.852 43.3691C485.985 43.5992 486.132 43.8212 486.291 44.0344C488.01 43.328 489.626 42.4045 491.099 41.2872Z" fill="#3A3B7B"/>
<path d="M515.611 39.7899C510.189 45.9925 501.101 44.4257 496.535 36.4416C493.286 30.7755 492.716 21.4178 499.784 15.5156C501.293 14.2799 503.098 13.4382 505.03 13.0689C507.399 12.7368 509.815 13.1454 511.932 14.2363C514.049 15.3272 515.759 17.0445 516.818 19.1428C520.682 26.0109 520.133 34.7675 515.611 39.7899ZM513.416 25.324C512.84 23.6363 511.684 22.1954 510.145 21.246C509.274 20.6391 508.216 20.344 507.148 20.4105C506.081 20.4769 505.069 20.9009 504.284 21.6109C501.145 24.3367 500.486 30.797 502.769 34.6388C503.06 35.2653 503.488 35.822 504.022 36.2701C504.556 36.7181 505.183 37.0468 505.861 37.2327C506.538 37.4188 507.249 37.4578 507.944 37.3472C508.638 37.2364 509.3 36.9786 509.882 36.5919C511.583 35.3019 512.832 33.5258 513.453 31.5104C514.075 29.4948 514.039 27.34 513.35 25.3456L513.416 25.324Z" fill="#3A3B7B"/>
<path d="M537.737 28.0279C537.182 28.1446 536.609 28.1516 536.051 28.0484C535.493 27.9451 534.962 27.7339 534.488 27.4271C534.074 27.1955 533.718 26.8772 533.445 26.4948C533.172 26.1125 532.989 25.6758 532.909 25.2159C532.829 24.7563 532.855 24.285 532.984 23.836C533.112 23.387 533.342 22.9715 533.654 22.6193C534.199 21.9117 534.973 21.4051 535.849 21.1814C538.138 20.5319 540.494 20.136 542.874 20.001C543.397 19.9416 543.926 19.9848 544.432 20.1282C544.937 20.2718 545.408 20.5124 545.817 20.8364C546.226 21.1602 546.565 21.5608 546.813 22.0144C547.062 22.468 547.215 22.9656 547.264 23.4779C547.95 25.9945 548.025 28.633 547.483 31.1831C545.508 39.4246 538.703 42.2576 531.064 39.6177C528.92 38.9119 527.04 37.5968 525.664 35.8404C523.829 33.7252 522.529 31.2184 521.866 28.5217C521.33 26.1202 521.389 23.6283 522.038 21.2538C522.687 18.8792 523.908 16.6908 525.598 14.8714C527.202 12.894 529.284 11.3377 531.657 10.3428C533.156 9.53491 534.91 9.30521 536.574 9.69892C536.951 9.80105 537.294 10.0001 537.566 10.2753C537.838 10.5505 538.03 10.892 538.122 11.2642C538.214 11.6365 538.202 12.0259 538.088 12.3923C537.974 12.7586 537.762 13.0884 537.474 13.3476C536.926 13.8327 536.33 14.2641 535.696 14.6353C533.744 15.8504 532.046 17.4162 530.691 19.2497C529.803 20.4362 529.191 21.7987 528.899 23.241C528.607 24.6834 528.642 26.1708 529.001 27.5988C529.499 29.5458 530.603 31.2933 532.162 32.5995C536.991 36.8921 543.269 32.7497 542.171 26.8904C540.569 27.2768 539.164 27.6846 537.737 28.0279Z" fill="#3A3B7B"/>
<path d="M567.24 40.133C560.106 44.4257 551.984 40.133 550.206 31.1188C548.911 24.6801 551.369 15.6657 559.974 12.2317C561.805 11.5168 563.791 11.2658 565.747 11.502C568.098 11.9227 570.254 13.0542 571.912 14.7369C573.57 16.4196 574.646 18.5686 574.988 20.8812C576.437 28.5432 573.145 36.7205 567.24 40.133ZM569.72 25.6887C569.718 23.9058 569.073 22.1805 567.898 20.8167C567.27 19.9732 566.363 19.3689 565.33 19.1065C564.297 18.8444 563.203 18.9405 562.235 19.3788C558.371 21.0099 555.65 26.9335 556.637 31.2906C556.713 31.9743 556.94 32.6337 557.303 33.2226C557.666 33.8115 558.157 34.3158 558.74 34.7001C559.323 35.0843 559.986 35.3395 560.68 35.4476C561.375 35.5554 562.085 35.5138 562.762 35.3255C564.804 34.628 566.572 33.3244 567.819 31.5967C569.067 29.869 569.732 27.8035 569.72 25.6887Z" fill="#3A3B7B"/>
<path d="M582.203 41.9361C582.096 42.7216 581.673 43.4331 581.029 43.9142C580.385 44.395 579.571 44.6061 578.768 44.5008C577.965 44.3955 577.237 43.9824 576.745 43.3525C576.253 42.7227 576.037 41.9274 576.145 41.1419C576.252 40.3564 576.675 39.6449 577.319 39.1639C577.963 38.6828 578.777 38.4719 579.58 38.5772C580.383 38.6825 581.111 39.0954 581.603 39.7253C582.095 40.3553 582.311 41.1506 582.203 41.9361ZM580.293 12.983C580.711 12.3595 581.323 11.8848 582.04 11.6295C582.755 11.3742 583.537 11.3521 584.267 11.5664C585.009 11.748 585.664 12.1732 586.124 12.771C586.583 13.3688 586.819 14.1029 586.791 14.8502C586.694 16.049 586.511 17.2395 586.242 18.413C585.518 22.3836 584.815 26.3541 584.047 30.2818C583.696 31.8486 583.235 33.351 582.73 34.9392C582.554 35.4357 582.261 35.8843 581.874 36.2484C581.633 36.5223 581.326 36.7324 580.98 36.8592C580.635 36.9863 580.262 37.0258 579.897 36.9745C579.531 36.9231 579.185 36.7825 578.89 36.5656C578.594 36.3486 578.36 36.0623 578.208 35.7333C577.947 35.1431 577.805 34.5089 577.791 33.8661C577.791 31.2047 577.791 28.5219 577.967 25.839C578.265 22.0103 578.852 18.2082 579.723 14.4639C579.825 13.9622 580.018 13.4825 580.293 13.0473V12.983Z" fill="#3A3B7B"/>
<path fill-rule="evenodd" clip-rule="evenodd" d="M481.824 59.1832C481.565 59.7489 481.494 60.3796 481.621 60.9865C481.705 61.7866 481.89 62.5736 482.172 63.3295C482.523 64.2551 482.917 65.1704 483.402 66.2985C483.514 66.5581 483.63 66.829 483.752 67.1142C484.407 68.6425 485.228 70.5957 486.323 73.4224C486.633 74.2254 486.908 75.0351 487.185 75.8502C487.297 76.1796 487.409 76.51 487.524 76.8412C487.937 78.0186 488.646 79.0764 489.586 79.9148C489.986 80.3756 490.515 80.7113 491.109 80.8792C491.715 81.0504 492.359 81.0396 492.958 80.8481C493.557 80.6565 494.083 80.2931 494.468 79.8051C494.845 79.3266 495.069 78.75 495.113 78.1477C495.358 76.9743 495.274 75.7576 494.871 74.6264C494.23 72.7481 493.501 70.8671 492.66 69.0273L492.656 69.0192C491.272 66.1407 489.865 63.2822 488.391 60.4225L488.38 60.4024C487.949 59.6574 487.389 58.9914 486.724 58.4343C486.293 57.9371 485.697 57.6017 485.04 57.4861C484.369 57.3681 483.677 57.487 483.087 57.8218C482.529 58.1333 482.087 58.6099 481.824 59.1832Z" fill="#3A3B7B"/>
<path fill-rule="evenodd" clip-rule="evenodd" d="M502.963 52.0951C500.793 51.5456 498.527 51.4655 496.322 51.8605C494.614 52.0249 492.935 52.4101 491.769 53.1729C491.175 53.5612 490.696 54.0597 490.429 54.6933C490.161 55.3305 490.127 56.0591 490.346 56.8709C490.748 58.358 491.269 59.8039 491.788 61.2451L491.872 61.4786L491.874 61.4837C493.438 65.6707 495.017 69.8435 496.61 74.0019C496.795 74.6573 497.058 75.2894 497.392 75.8857L497.399 75.8967C497.84 76.6375 498.407 77.3001 499.074 77.8566C499.408 78.1625 499.821 78.3742 500.268 78.4689C500.72 78.5642 501.19 78.5366 501.627 78.3886C502.064 78.2408 502.451 77.9784 502.746 77.6301C503.036 77.2875 503.226 76.8748 503.296 76.4356C503.584 75.2423 503.491 73.9914 503.031 72.8508C502.887 72.4669 502.775 72.0746 502.656 71.6617C502.616 71.524 502.576 71.3839 502.534 71.2413C506.18 69.8477 510.06 67.9738 511.424 63.6146C511.959 62.1081 512.003 60.4769 511.552 58.9445C511.1 57.4105 510.173 56.0508 508.899 55.0527C507.164 53.6554 505.139 52.6459 502.963 52.0951ZM496.948 57.442C497.02 57.4217 497.092 57.403 497.164 57.3855C499.538 57.0206 501.967 57.5068 504.003 58.7542C504.901 59.3645 505.268 60.0425 505.332 60.6949C505.397 61.3666 505.147 62.0945 504.645 62.7943C503.697 64.116 501.966 65.174 500.403 65.3712C499.264 62.8053 498.107 60.1356 496.948 57.442Z" fill="#3A3B7B"/>
<path d="M517.43 47.3983C520.014 46.2314 523.216 46.0298 525.721 46.8503C526.351 47.0299 526.899 47.4186 527.269 47.9497C527.637 48.4775 527.806 49.1135 527.75 49.7493C527.746 50.1621 527.642 50.5682 527.448 50.9345C527.249 51.3075 526.962 51.6282 526.61 51.8697C526.258 52.111 525.851 52.2662 525.425 52.3216C524.999 52.3772 524.565 52.3316 524.161 52.1885L524.13 52.1777L524.101 52.1628C523.894 52.0569 523.675 51.9772 523.447 51.9253L523.433 51.9222C521.671 51.4645 520.009 52.2228 519.401 53.1545C519.112 53.5987 519.076 54.0471 519.317 54.4551C519.575 54.8919 520.209 55.3821 521.491 55.7316C521.843 55.8262 522.205 55.9175 522.571 56.0103C523.585 56.2669 524.638 56.5335 525.657 56.9029L525.661 56.9044C530.36 58.6525 532.109 62.273 531.51 65.6784C530.918 69.0459 528.041 72.1107 523.716 72.8336C522.142 73.1747 520.504 73.1083 518.964 72.6409C517.42 72.172 516.029 71.3165 514.927 70.1589L514.899 70.1288C514.551 69.6926 514.317 69.1803 514.214 68.6367C514.118 68.1461 514.169 67.6391 514.358 67.1754C514.547 66.7144 514.866 66.3155 515.277 66.0248C515.712 65.6953 516.236 65.4976 516.784 65.4563C517.331 65.4153 517.878 65.5314 518.357 65.7903C518.837 66.0167 519.283 66.3055 519.683 66.6491L519.69 66.6553C520.398 67.2884 521.255 67.4534 522.076 67.3006C522.91 67.1456 523.694 66.6634 524.198 66.0237C524.698 65.388 524.899 64.6329 524.661 63.8999C524.421 63.1615 523.699 62.3342 522.113 61.6425C521.698 61.4704 521.269 61.3316 520.821 61.1965C520.701 61.16 520.578 61.1238 520.454 61.0869C520.123 60.9888 519.783 60.8878 519.45 60.7764C519.22 60.6998 518.992 60.6273 518.766 60.5553C518.149 60.3589 517.548 60.1674 516.969 59.9106C515.71 59.4912 514.621 58.686 513.866 57.6141C513.108 56.5379 512.727 55.2509 512.779 53.9453C512.783 50.7637 514.832 48.5717 517.43 47.3983Z" fill="#3A3B7B"/>
<path d="M550.193 47.0594C549.692 46.8201 549.138 46.7065 548.581 46.7288C548.024 46.7513 547.481 46.9089 547.002 47.1878C546.526 47.4646 546.127 47.8523 545.841 48.3164C545.579 48.7072 545.398 49.1443 545.307 49.6032C545.217 50.0618 545.219 50.5331 545.314 50.9905C545.407 51.5785 545.511 52.1503 545.613 52.7142C545.782 53.6473 545.946 54.5595 546.055 55.4895L546.059 55.5131C546.306 56.9716 546.436 58.4468 546.447 59.925L546.448 59.946C546.533 61.5424 545.977 63.1078 544.899 64.3099L544.882 64.3312C544.531 64.7706 544.062 65.1061 543.527 65.2999C542.993 65.4938 542.414 65.5383 541.854 65.4286C541.295 65.3189 540.779 65.0593 540.362 64.6788C539.945 64.2983 539.644 63.8104 539.494 63.2727C539.174 62.1393 538.989 60.9734 538.942 59.7985L539.489 51.2819C539.497 51.1707 539.506 51.0566 539.515 50.9414C539.536 50.6827 539.558 50.4193 539.566 50.1735C539.579 49.812 539.568 49.4401 539.482 49.0881C539.394 48.7284 539.226 48.3862 538.929 48.0948C538.634 47.8063 538.237 47.5935 537.736 47.4486C536.831 47.1925 536.066 47.2006 535.429 47.4652C534.791 47.7297 534.354 48.2209 534.045 48.7882C533.738 49.3508 533.541 50.0169 533.391 50.684C533.281 51.179 533.192 51.6987 533.107 52.1934C533.078 52.3638 533.05 52.5312 533.021 52.6937L533.02 52.6985C532.568 55.4113 532.433 58.1656 532.619 60.9082C532.653 62.3904 532.97 63.8533 533.551 65.2224C534.208 66.9889 535.396 68.5195 536.96 69.6121C538.528 70.7068 540.398 71.3101 542.324 71.342C544.25 71.3738 546.141 70.8328 547.745 69.7906C549.347 68.75 550.589 67.2585 551.306 65.5135C552.308 63.2906 552.779 60.8731 552.682 58.4453C552.623 56.6729 552.525 54.8868 552.426 53.1098C552.378 52.2381 552.33 51.3683 552.287 50.5038C552.265 49.6369 551.973 48.7973 551.449 48.0975C551.125 47.6552 550.693 47.2984 550.193 47.0594Z" fill="#3A3B7B"/>
<path d="M567.929 60.4134C567.879 60.4766 567.825 60.5419 567.769 60.6099C567.361 58.3109 566.984 56.0127 566.605 53.7111C566.47 52.8852 566.333 52.0559 566.196 51.229L566.181 51.1367L566.131 51.057C566.036 50.907 566.027 50.7599 566.027 50.4462V50.4099L566.021 50.374C565.919 49.7262 565.619 49.1233 565.161 48.6443C564.705 48.1666 564.112 47.8341 563.459 47.6898C562.808 47.5328 562.124 47.5674 561.493 47.7894C560.863 48.0109 560.314 48.4089 559.915 48.9335C559.583 49.3361 559.311 49.7827 559.107 50.2599C558.644 51.2879 558.177 52.3184 557.708 53.3517L557.7 53.3696C556.531 55.9492 555.354 58.5462 554.211 61.1636L554.208 61.1721C553.506 62.8692 552.927 64.6575 552.35 66.4402C552.235 66.7961 552.119 67.1517 552.003 67.5065C551.795 68.069 551.704 68.6666 551.735 69.264C551.697 69.7988 551.828 70.3323 552.11 70.7923C552.398 71.2617 552.83 71.631 553.343 71.8484C553.888 72.0819 554.497 72.1314 555.073 71.9893C555.649 71.8473 556.16 71.5226 556.526 71.066C556.994 70.5036 557.396 69.8903 557.724 69.2404C558.692 67.3041 559.617 65.3443 560.538 63.3929C560.895 62.6382 561.241 61.9622 561.635 61.226C561.662 61.3168 561.69 61.4053 561.718 61.4941C562.131 63.2715 562.828 64.9739 563.783 66.5391C563.964 66.8706 564.216 67.1604 564.522 67.3885C564.831 67.6193 565.188 67.7813 565.568 67.8636C565.947 67.9459 566.341 67.9463 566.721 67.8647C567.1 67.7833 567.458 67.6212 567.768 67.3914L568.38 66.9431L573.134 63.0281L572.853 64.7797C572.467 67.1874 572.084 69.5751 571.677 71.9633C571.411 73.0218 571.411 74.1275 571.678 75.1856C571.794 75.7812 572.089 76.3294 572.524 76.7605C572.964 77.1952 573.527 77.4904 574.14 77.6083C574.754 77.7259 575.389 77.6607 575.964 77.4209C576.531 77.1847 577.013 76.7896 577.35 76.2861C578.134 75.3353 578.621 74.1842 578.755 72.9697C578.957 71.2547 579.185 69.5164 579.413 67.7785C579.676 65.7755 579.939 63.7729 580.16 61.8088L580.161 61.8028C580.375 59.6528 580.478 57.4939 580.471 55.3338C580.518 54.6512 580.344 53.9712 579.973 53.39C579.602 52.8068 579.051 52.3534 578.401 52.094C577.724 51.7932 576.966 51.7127 576.239 51.8648C575.517 52.0158 574.864 52.388 574.373 52.9272C573.496 53.7201 572.674 54.5686 571.911 55.4671L571.906 55.4732C571.073 56.4881 570.245 57.5228 569.423 58.551C568.923 59.176 568.425 59.7995 567.929 60.4134Z" fill="#3A3B7B"/>
<path d="M179.258 54.5477H186.136V28.6045H179.258V54.5477ZM179.258 24.5589H186.136V18.3892H179.258V24.5589Z" fill="black"/>
<path d="M190.568 63.0434H197.446V51.6142H197.547C199.013 53.8394 201.39 55.306 205.031 55.306C211.707 55.306 216.258 49.996 216.258 41.6012C216.258 33.5096 211.859 27.8962 204.981 27.8962C201.441 27.8962 199.013 29.5652 197.345 31.8408H197.193V28.6042H190.568V63.0434ZM203.565 49.5914C199.469 49.5914 197.294 46.5066 197.294 41.8034C197.294 37.1508 199.013 33.4592 203.312 33.4592C207.56 33.4592 209.279 36.898 209.279 41.8034C209.279 46.7088 207.054 49.5914 203.565 49.5914Z" fill="black"/>
<path d="M229.977 55.306C236.451 55.306 240.901 52.1706 240.901 46.9616C240.901 40.8932 236.097 39.6794 231.747 38.7692C228.055 38.0106 224.617 37.8082 224.617 35.5832C224.617 33.712 226.387 32.7006 229.067 32.7006C232.001 32.7006 233.771 33.712 234.073 36.4934H240.293C239.789 31.2846 235.995 27.8962 229.169 27.8962C223.251 27.8962 218.599 30.5766 218.599 36.19C218.599 41.854 223.151 43.1182 227.803 44.0286C231.343 44.7366 234.629 44.9894 234.629 47.4674C234.629 49.288 232.911 50.4512 229.877 50.4512C226.791 50.4512 224.667 49.1362 224.213 46.1526H217.841C218.245 51.6648 222.443 55.306 229.977 55.306Z" fill="black"/>
<path d="M267.013 54.5477V28.6045H260.135V43.5737C260.135 47.0125 258.163 49.4399 254.927 49.4399C251.993 49.4399 250.629 47.7711 250.629 44.7369V28.6045H243.801V45.8999C243.801 51.5639 247.037 55.2557 252.803 55.2557C256.444 55.2557 258.467 53.8903 260.237 51.5135H260.389V54.5477H267.013Z" fill="black"/>
<path d="M271.462 54.5474H278.34V39.4772C278.34 36.0382 280.212 33.8132 282.993 33.8132C285.522 33.8132 286.988 35.3302 286.988 38.2634V54.5474H293.866V39.4772C293.866 36.0382 295.636 33.8132 298.518 33.8132C301.047 33.8132 302.514 35.3302 302.514 38.2634V54.5474H309.392V37.1002C309.392 31.4362 306.306 27.8962 300.844 27.8962C297.558 27.8962 294.826 29.6156 293.056 32.4476H292.956C291.692 29.7168 289.062 27.8962 285.774 27.8962C282.184 27.8962 279.656 29.7168 278.24 32.0936H278.088V28.6042H271.462V54.5474Z" fill="black"/>
<path d="M0 54.5477H6.87771V18.3892H0V54.5477Z" fill="black"/>
<path d="M23.6948 55.306C31.7356 55.306 37.2479 49.3386 37.2479 41.6012C37.2479 33.8636 31.7356 27.8962 23.6948 27.8962C15.6539 27.8962 10.1416 33.8636 10.1416 41.6012C10.1416 49.3386 15.6539 55.306 23.6948 55.306ZM23.6948 50.0466C19.4468 50.0466 17.1204 46.6582 17.1204 41.6012C17.1204 36.544 19.4468 33.1052 23.6948 33.1052C27.8922 33.1052 30.269 36.544 30.269 41.6012C30.269 46.6582 27.8922 50.0466 23.6948 50.0466Z" fill="black"/>
<path d="M51.8741 63.3974C55.7175 63.3974 59.0553 62.4872 61.2297 60.4642C63.1515 58.6942 64.3147 56.2162 64.3147 52.5752V28.6042H57.6899V31.3352H57.5887C56.0209 29.1606 53.6441 27.8962 50.4075 27.8962C43.8333 27.8962 39.1807 32.8522 39.1807 40.5896C39.1807 48.4282 44.8447 52.9796 50.6098 52.9796C53.8969 52.9796 55.8693 51.6648 57.3863 49.9454H57.5381V52.7774C57.5381 56.3174 55.6669 58.1886 51.7729 58.1886C48.5869 58.1886 47.1203 56.9242 46.5641 55.306H39.7369C40.4449 60.3632 44.7941 63.3974 51.8741 63.3974ZM51.7729 47.4674C48.2329 47.4674 45.9067 44.8882 45.9067 40.4886C45.9067 36.1394 48.2329 33.4086 51.7223 33.4086C55.8693 33.4086 57.8921 36.6452 57.8921 40.438C57.8921 44.2814 56.1221 47.4674 51.7729 47.4674Z" fill="black"/>
<path d="M81.0317 55.306C89.0725 55.306 94.5849 49.3386 94.5849 41.6012C94.5849 33.8636 89.0725 27.8962 81.0317 27.8962C72.9909 27.8962 67.4785 33.8636 67.4785 41.6012C67.4785 49.3386 72.9909 55.306 81.0317 55.306ZM81.0317 50.0466C76.7837 50.0466 74.4575 46.6582 74.4575 41.6012C74.4575 36.544 76.7837 33.1052 81.0317 33.1052C85.2291 33.1052 87.6061 36.544 87.6061 41.6012C87.6061 46.6582 85.2291 50.0466 81.0317 50.0466Z" fill="black"/>
<path d="M311.89 24.3454C311.89 23.1817 312.834 22.2383 313.997 22.2383H318.212C319.375 22.2383 320.319 23.1817 320.319 24.3454C320.319 25.5092 319.375 26.4526 318.212 26.4526H313.997C312.834 26.4526 311.89 25.5092 311.89 24.3454Z" fill="black"/>
<path fill-rule="evenodd" clip-rule="evenodd" d="M136.295 11C152.587 11 165.796 24.2076 165.796 40.5C165.796 56.7924 152.587 70 136.295 70C120.003 70 106.795 56.7924 106.795 40.5C106.795 24.2076 120.003 11 136.295 11ZM135.229 13.2075C131.864 13.6811 128.659 16.3853 126.171 20.9082C125.45 22.2201 124.799 23.6695 124.232 25.2344C127.614 24.3844 131.33 23.8833 135.229 23.8058V13.2075ZM121.738 25.9429C122.444 23.7286 123.307 21.6914 124.303 19.8805C125.536 17.6384 127 15.7022 128.648 14.2152C119.682 16.8192 112.615 23.8868 110.01 32.8532C111.498 31.2043 113.434 29.7408 115.676 28.5077C117.487 27.5116 119.524 26.6484 121.738 25.9429ZM121.03 28.4361C120.18 31.8186 119.679 35.5343 119.601 39.4337H109.003C109.476 36.0682 112.181 32.8636 116.704 30.3762C118.015 29.6546 119.465 29.0036 121.03 28.4361ZM121.734 39.4337C121.822 35.1782 122.435 31.183 123.448 27.653C126.978 26.6394 130.974 26.0267 135.229 25.9387V30.5449C133.642 34.6091 130.404 37.8468 126.339 39.4337H121.734ZM119.601 41.5663H109.003C109.476 44.9318 112.181 48.1362 116.704 50.6238C118.015 51.3454 119.465 51.9964 121.03 52.5639C120.18 49.1814 119.679 45.4657 119.601 41.5663ZM123.448 53.347C122.435 49.817 121.822 45.8218 121.734 41.5663H126.339C130.404 43.1532 133.642 46.3909 135.229 50.4551V55.0613C130.974 54.9733 126.978 54.3606 123.448 53.347ZM121.738 55.0571C119.524 54.3516 117.487 53.4884 115.676 52.4923C113.434 51.2592 111.498 49.7957 110.01 48.1468C112.615 57.1132 119.682 64.1808 128.648 66.7848C127 65.2977 125.536 63.3616 124.303 61.1195C123.307 59.3086 122.444 57.2713 121.738 55.0571ZM135.229 67.7925C131.864 67.3189 128.659 64.6146 126.171 60.0918C125.45 58.78 124.799 57.3305 124.232 55.7657C127.614 56.6156 131.33 57.1168 135.229 57.1942V67.7925ZM143.942 66.7848C145.591 65.2977 147.055 63.3616 148.288 61.1195C149.283 59.3086 150.148 57.2713 150.853 55.0571C153.067 54.3516 155.104 53.4884 156.915 52.4923C159.157 51.2592 161.094 49.7957 162.58 48.1468C159.975 57.1132 152.909 64.1808 143.942 66.7848ZM148.36 55.7657C147.792 57.3305 147.14 58.78 146.419 60.0918C143.932 64.6146 140.727 67.3189 137.362 67.7925V57.1942C141.261 57.1168 144.977 56.6156 148.36 55.7657ZM151.561 52.5639C153.126 51.9964 154.576 51.3454 155.887 50.6238C160.411 48.1364 163.114 44.9318 163.588 41.5663H152.99C152.912 45.4657 152.41 49.1814 151.561 52.5639ZM150.857 41.5663C150.769 45.8218 150.156 49.817 149.142 53.347C145.612 54.3606 141.617 54.9733 137.362 55.0613V50.4585C138.949 46.3928 142.187 43.1537 146.253 41.5663H150.857ZM152.99 39.4337H163.588C163.114 36.0682 160.411 32.8636 155.887 30.3762C154.576 29.6546 153.126 29.0036 151.561 28.4361C152.41 31.8186 152.912 35.5343 152.99 39.4337ZM149.142 27.653C150.156 31.183 150.769 35.1782 150.857 39.4337H146.253C142.187 37.8463 138.949 34.6072 137.362 30.5415V25.9387C141.617 26.0267 145.612 26.6394 149.142 27.653ZM150.853 25.9429C153.067 26.6484 155.104 27.5116 156.915 28.5077C159.157 29.7408 161.094 31.2043 162.58 32.8532C159.975 23.8868 152.909 16.8192 143.942 14.2152C145.591 15.7022 147.055 17.6384 148.288 19.8805C149.283 21.6914 150.148 23.7286 150.853 25.9429ZM137.362 13.2075C140.727 13.6811 143.932 16.3853 146.419 20.9082C147.14 22.2201 147.792 23.6695 148.36 25.2344C144.977 24.3844 141.261 23.8833 137.362 23.8058V13.2075Z" fill="black"/>
<path d="M1309.42 71.3569H1314.96V50.4704H1309.42V71.3569ZM1309.42 47.2132H1314.96V42.2461H1309.42V47.2132Z" fill="black"/>
<path d="M1318.52 78.1972H1324.06V68.9958H1324.14C1325.32 70.7871 1327.24 71.9679 1330.17 71.9679C1335.54 71.9679 1339.21 67.6929 1339.21 60.9343C1339.21 54.4198 1335.67 49.9006 1330.13 49.9006C1327.28 49.9006 1325.32 51.2442 1323.98 53.0762H1323.86V50.4707H1318.52V78.1972ZM1328.99 67.3671C1325.69 67.3671 1323.94 64.8836 1323.94 61.0971C1323.94 57.3514 1325.32 54.3791 1328.78 54.3791C1332.2 54.3791 1333.59 57.1477 1333.59 61.0971C1333.59 65.0464 1331.8 67.3671 1328.99 67.3671Z" fill="black"/>
<path d="M1350.25 71.9679C1355.46 71.9679 1359.05 69.4435 1359.05 65.2499C1359.05 60.3642 1355.18 59.3872 1351.68 58.6543C1348.71 58.0436 1345.94 57.8806 1345.94 56.0892C1345.94 54.5828 1347.36 53.7684 1349.52 53.7684C1351.88 53.7684 1353.31 54.5828 1353.55 56.8221H1358.56C1358.15 52.6285 1355.1 49.9006 1349.6 49.9006C1344.84 49.9006 1341.09 52.0585 1341.09 56.5777C1341.09 61.1378 1344.76 62.1557 1348.5 62.8886C1351.35 63.4584 1354 63.6621 1354 65.6572C1354 67.1229 1352.61 68.0592 1350.17 68.0592C1347.69 68.0592 1345.98 67.0007 1345.61 64.5985H1340.48C1340.81 69.0365 1344.19 71.9679 1350.25 71.9679Z" fill="black"/>
<path d="M1380.07 71.3572V50.4707H1374.53V62.5221C1374.53 65.2907 1372.94 67.245 1370.34 67.245C1367.98 67.245 1366.88 65.9014 1366.88 63.4584V50.4707H1361.38V64.395C1361.38 68.9549 1363.99 71.9272 1368.63 71.9272C1371.56 71.9272 1373.19 70.8278 1374.61 68.9142H1374.74V71.3572H1380.07Z" fill="black"/>
<path d="M1383.65 71.3571H1389.19V59.2241C1389.19 56.4556 1390.7 54.6642 1392.93 54.6642C1394.97 54.6642 1396.15 55.8855 1396.15 58.2471V71.3571H1401.69V59.2241C1401.69 56.4556 1403.11 54.6642 1405.43 54.6642C1407.47 54.6642 1408.65 55.8855 1408.65 58.2471V71.3571H1414.19V57.3107C1414.19 52.7506 1411.7 49.9006 1407.31 49.9006C1404.66 49.9006 1402.46 51.2849 1401.04 53.5649H1400.96C1399.94 51.3663 1397.82 49.9006 1395.17 49.9006C1392.28 49.9006 1390.25 51.3663 1389.11 53.28H1388.99V50.4707H1383.65V71.3571Z" fill="black"/>
<path d="M1309.5 35.5832H1315.04V6.47241H1309.5V35.5832Z" fill="black"/>
<path d="M1328.58 36.1942C1335.05 36.1942 1339.49 31.3899 1339.49 25.1605C1339.49 18.9312 1335.05 14.127 1328.58 14.127C1322.1 14.127 1317.67 18.9312 1317.67 25.1605C1317.67 31.3899 1322.1 36.1942 1328.58 36.1942ZM1328.58 31.9599C1325.16 31.9599 1323.28 29.232 1323.28 25.1605C1323.28 21.0891 1325.16 18.3205 1328.58 18.3205C1331.96 18.3205 1333.87 21.0891 1333.87 25.1605C1333.87 29.232 1331.96 31.9599 1328.58 31.9599Z" fill="black"/>
<path d="M1351.26 42.7086C1354.36 42.7086 1357.05 41.9757 1358.8 40.347C1360.34 38.922 1361.28 36.927 1361.28 33.9956V14.6969H1355.95V16.8955H1355.86C1354.6 15.1448 1352.69 14.127 1350.08 14.127C1344.79 14.127 1341.04 18.117 1341.04 24.3463C1341.04 30.657 1345.6 34.3212 1350.25 34.3212C1352.89 34.3212 1354.48 33.2628 1355.7 31.8785H1355.82V34.1584C1355.82 37.0084 1354.32 38.5148 1351.18 38.5148C1348.62 38.5148 1347.44 37.4971 1346.99 36.1942H1341.49C1342.06 40.2656 1345.56 42.7086 1351.26 42.7086ZM1351.18 29.8835C1348.33 29.8835 1346.46 27.807 1346.46 24.2649C1346.46 20.7635 1348.33 18.5648 1351.14 18.5648C1354.48 18.5648 1356.11 21.1705 1356.11 24.2242C1356.11 27.3184 1354.68 29.8835 1351.18 29.8835Z" fill="black"/>
<path d="M1374.74 36.1942C1381.21 36.1942 1385.65 31.3899 1385.65 25.1605C1385.65 18.9312 1381.21 14.127 1374.74 14.127C1368.27 14.127 1363.83 18.9312 1363.83 25.1605C1363.83 31.3899 1368.27 36.1942 1374.74 36.1942ZM1374.74 31.9599C1371.32 31.9599 1369.45 29.232 1369.45 25.1605C1369.45 21.0891 1371.32 18.3205 1374.74 18.3205C1378.12 18.3205 1380.03 21.0891 1380.03 25.1605C1380.03 29.232 1378.12 31.9599 1374.74 31.9599Z" fill="black"/>
<path d="M1390.5 27.6032H1414.44V22.8396H1390.5V27.6032Z" fill="black"/>
<path fill-rule="evenodd" clip-rule="evenodd" d="M1253.5 0C1275.87 0 1294 18.1325 1294 40.5C1294 62.8675 1275.87 81 1253.5 81C1231.13 81 1213 62.8675 1213 40.5C1213 18.1325 1231.13 0 1253.5 0ZM1252.04 3.03059C1247.42 3.68082 1243.02 7.39344 1239.6 13.6027C1238.61 15.4038 1237.72 17.3937 1236.94 19.5421C1241.58 18.3752 1246.68 17.6872 1252.04 17.5808V3.03059ZM1233.51 20.5149C1234.48 17.4749 1235.67 14.678 1237.04 12.1918C1238.73 9.1137 1240.74 6.4556 1243 4.41403C1230.69 7.98909 1220.99 17.692 1217.41 30.0018C1219.46 27.738 1222.11 25.7288 1225.19 24.0359C1227.68 22.6685 1230.47 21.4834 1233.51 20.5149ZM1232.54 23.9377C1231.38 28.5815 1230.69 33.6826 1230.58 39.0361H1216.03C1216.68 34.4157 1220.39 30.0162 1226.6 26.6012C1228.4 25.6106 1230.39 24.7167 1232.54 23.9377ZM1233.51 39.0361C1233.63 33.1938 1234.47 27.7089 1235.86 22.8627C1240.71 21.4711 1246.19 20.6299 1252.04 20.509V26.8329C1249.86 32.4126 1245.41 36.8574 1239.83 39.0361H1233.51ZM1230.58 41.9639H1216.03C1216.68 46.5843 1220.39 50.9836 1226.6 54.3988C1228.4 55.3894 1230.39 56.2833 1232.54 57.0623C1231.38 52.4185 1230.69 47.3174 1230.58 41.9639ZM1235.86 58.1373C1234.47 53.2911 1233.63 47.8062 1233.51 41.9639H1239.83C1245.41 44.1426 1249.86 48.5874 1252.04 54.1671V60.491C1246.19 60.3701 1240.71 59.5289 1235.86 58.1373ZM1233.51 60.4851C1230.47 59.5166 1227.68 58.3315 1225.19 56.9641C1222.11 55.2712 1219.46 53.262 1217.41 50.9982C1220.99 63.308 1230.69 73.011 1243 76.5859C1240.74 74.5443 1238.73 71.8863 1237.04 68.8081C1235.67 66.322 1234.48 63.5251 1233.51 60.4851ZM1252.04 77.9694C1247.42 77.3192 1243.02 73.6065 1239.6 67.3973C1238.61 65.5962 1237.72 63.6063 1236.94 61.4579C1241.58 62.6247 1246.68 63.3128 1252.04 63.4192V77.9694ZM1264 76.5859C1266.26 74.5443 1268.27 71.8863 1269.96 68.8081C1271.33 66.322 1272.52 63.5251 1273.49 60.4851C1276.53 59.5166 1279.32 58.3315 1281.81 56.9641C1284.89 55.2712 1287.54 53.262 1289.59 50.9982C1286.01 63.308 1276.31 73.011 1264 76.5859ZM1270.06 61.4579C1269.28 63.6063 1268.39 65.5962 1267.4 67.3973C1263.98 73.6065 1259.58 77.3192 1254.96 77.9694V63.4192C1260.32 63.3128 1265.42 62.6247 1270.06 61.4579ZM1274.46 57.0623C1276.61 56.2833 1278.6 55.3894 1280.4 54.3988C1286.61 50.9836 1290.32 46.5843 1290.97 41.9639H1276.42C1276.31 47.3174 1275.62 52.4185 1274.46 57.0623ZM1273.49 41.9639C1273.37 47.8062 1272.53 53.2911 1271.14 58.1373C1266.29 59.5289 1260.81 60.3701 1254.96 60.491V54.1718C1257.14 48.5901 1261.59 44.1432 1267.17 41.9639H1273.49ZM1276.42 39.0361H1290.97C1290.32 34.4157 1286.61 30.0162 1280.4 26.6012C1278.6 25.6106 1276.61 24.7167 1274.46 23.9377C1275.62 28.5815 1276.31 33.6826 1276.42 39.0361ZM1271.14 22.8627C1272.53 27.7089 1273.37 33.1938 1273.49 39.0361H1267.17C1261.59 36.8568 1257.14 32.4099 1254.96 26.8282V20.509C1260.81 20.6299 1266.29 21.4711 1271.14 22.8627ZM1273.49 20.5149C1276.53 21.4834 1279.32 22.6685 1281.81 24.0359C1284.89 25.7288 1287.54 27.738 1289.59 30.0018C1286.01 17.692 1276.31 7.98909 1264 4.41403C1266.26 6.4556 1268.27 9.1137 1269.96 12.1918C1271.33 14.678 1272.52 17.4749 1273.49 20.5149ZM1254.96 3.03059C1259.58 3.68082 1263.98 7.39344 1267.4 13.6027C1268.39 15.4039 1269.28 17.3937 1270.06 19.5421C1265.42 18.3752 1260.32 17.6872 1254.96 17.5808V3.03059Z" fill="black"/>
</g>
<defs>
<linearGradient id="paint0_linear_45_2592" x1="815.518" y1="29.4226" x2="753.668" y2="29.4226" gradientUnits="userSpaceOnUse">
<stop stop-color="#64C2DB"/>
<stop offset="0.510417" stop-color="#7476ED"/>
<stop offset="1" stop-color="#E56F8C"/>
</linearGradient>
<clipPath id="clip0_45_2592">
<rect width="1391" height="81" fill="white"/>
</clipPath>
</defs>
</svg>
